<svg xmlns="http://www.w3.org/2000/svg" version="1.1" xmlns:xlink="http://www.w3.org/1999/xlink" xmlns:svgjs="http://svgjs.dev/svgjs" width="1000" height="1125" viewBox="0 0 1000 1125"><g transform="matrix(1,0,0,1,1.7053025658242404e-13,0)"><svg viewBox="0 0 320 360" data-background-color="#ffffff" preserveAspectRatio="xMidYMid meet" height="1125" width="1000" xmlns="http://www.w3.org/2000/svg" xmlns:xlink="http://www.w3.org/1999/xlink"><g id="tight-bounds" transform="matrix(1,0,0,1,0,0)"><svg viewBox="0 0 320 360" height="360" width="320"><g><svg></svg></g><g><svg viewBox="0 0 320 360" height="360" width="320"><g><path d="M20.961 227.22l3.726 4.658-1.863-6.056c-0.466-2.795-3.726 0.466-1.863 1.398M25.153 224.425c1.397 2.329 2.795 4.658 2.795 6.987 0 3.261 2.795 4.658 5.123 5.589-3.261-3.726-5.124-13.974-7.918-12.576M204.017 26.929c7.918 0 15.371-0.932 23.756 0.931 20.495 5.124 37.729 15.371 49.374 29.811l32.606 52.169c1.397 13.042 4.192 27.482 3.726 43.319 3.261 0 2.795-4.658 6.521-5.59-3.726 9.316-5.59 20.961-6.521 34.469-2.329-7.453 0-18.632 0.466-24.687-3.261 5.124-5.124 1.397-5.124-0.932 0.466-3.726-1.397-3.261-2.795-4.658-5.124-4.658-8.384-9.782-12.11-17.7 2.329-6.055 2.795-14.905-4.658-19.563-2.329-1.397-5.124-3.726-6.521-7.453-1.863-5.124-5.124-11.179-4.193-19.097 0.466-2.329-6.987 5.124-11.179 1.863-18.166-12.576-36.332-27.016-58.224-39.127-11.645 0-20.029-4.192-24.221-9.316-3.726-4.658-0.932-10.713 4.658-11.179 3.261 0 6.987-0.932 9.782 0.932 0.466-1.863 2.329-4.192 4.657-4.192M157.904 16.215l0.932 0.466c4.658 0.932 6.987 7.453 12.11 5.124 0 3.261 0.466 6.521-0.466 8.85-1.397 3.726-5.59 3.726-8.85 3.726-31.208-1.863-49.374 11.179-68.471 22.358-5.124 3.261-10.713 5.59-14.906 9.782-20.029 18.632-41.921 35.866-47.045 70.335l-4.192 38.195c-0.466 4.192-5.124 8.384-4.192 13.508l3.26 22.824c-3.261-3.261-5.124 0.932-4.192 2.795 0.466 1.397 2.329 6.055 5.124 1.863 3.726 6.987 7.453 20.495 12.576 26.55 15.837 18.632 36.332 35.4 53.101 52.169 4.192-0.932 7.453-0.932 8.384-3.727 1.397 2.795-1.397 5.59-3.726 6.056 7.453 4.658 15.837 8.85 27.016 9.781 14.44 0.932 27.948 3.261 40.524 6.522 6.521-1.863 13.042-2.795 20.029-3.261 2.329 0 3.726-3.726 6.521-4.658l0.466-4.658c2.795 4.192 2.329-1.397 0.466-4.192 3.261 2.795 4.192 5.124 5.589 6.987 0-1.397 3.726-6.521 3.727-0.466l0.931-6.055c1.397-0.932 1.863 5.124 3.261 0.931 1.397-4.192 4.192-0.932 6.987-2.329-0.932 1.863-0.466 5.59 2.794 3.261l3.727-3.261c2.329 5.59 6.055 3.261 7.918 2.329 20.495-13.042 40.99-28.413 60.553-43.784l-0.466 6.055 2.329-7.453c2.329 2.329 4.192 0.466 5.124-0.931 2.795-4.658 6.521-9.316 12.577-13.508-7.453 20.029-16.303 35.866-27.482 48.908l-4.658 5.59c0 3.261-0.932 7.453-4.658 7.918-1.863 0.466-5.59-0.932-8.384 1.863-1.397 1.863 3.261 5.59-0.466 2.795-3.261-2.329-6.521 0-10.248 0.932-2.795 0.932 1.863 3.726 2.795 5.589 0.932 1.863 1.863 3.726 1.398 6.056l-5.124-5.59c-6.055 3.261-9.782 9.316-14.906 13.974-2.329 1.863-1.397 5.124-1.397 7.918-3.261 0-6.987-0.932-8.85 0.932-1.397 1.863-0.932 4.658-0.932 7.453-4.658-0.466-5.124-7.453-9.315-6.056-4.192 0.932-8.85 1.397-12.577 3.727 2.795 5.59-4.658 2.329-3.726 3.26-6.987-4.192-13.042-7.453-20.495-4.658-15.837-5.124-35.4-2.795-49.84-0.931 0-2.329 0.466-4.658-0.466-5.124-0.932 2.329-3.726 1.397-3.26 1.397-8.85-6.055-17.7-9.782-27.016-14.905-8.384 0.932-16.303-3.261-18.632-5.59-6.521-6.055-13.974-2.795-20.029-4.192-13.042-3.261-17.7-16.769-19.098-26.084-0.932-4.658-4.658-6.521-6.055-6.056-6.055-19.563-15.371-37.263-22.824-55.429-1.863-4.658-1.397-9.316-1.397-14.44 2.329 0.932 4.658 0.466 4.192-2.794-2.329-15.371-7.918-27.016-13.974-38.195 3.261-15.837 3.726-34.469 11.179-48.443 6.521-12.576 18.632-19.098 27.016-29.811 2.795-3.726 2.795-8.85 5.59-12.11 9.316-9.316 18.632-19.098 28.879-27.482 4.658-3.726 10.247 0 17.234-1.397 2.329-8.384 11.645-15.837 20.495-13.508 3.726 0.932 11.179-8.85 13.508-9.782 3.726-1.397 1.863 3.726 1.863 6.987 8.85-6.987 20.961-10.713 32.14-14.906" fill="#ffffff" fill-rule="nonzero" stroke="none" stroke-width="1" stroke-linecap="butt" stroke-linejoin="miter" stroke-miterlimit="10" stroke-dasharray="" stroke-dashoffset="0" font-family="none" font-weight="none" font-size="none" text-anchor="none" style="mix-blend-mode: normal" data-fill-palette-color="tertiary"></path></g><g transform="matrix(1,0,0,1,64,120.05669291338583)"><svg viewBox="0 0 192 119.88661417322835" height="119.88661417322835" width="192"><g><svg viewBox="0 0 192 119.88661417322835" height="119.88661417322835" width="192"><g><svg viewBox="0 0 192 119.88661417322835" height="119.88661417322835" width="192"><g><svg viewBox="0 0 192 119.88661417322835" height="119.88661417322835" width="192"><g><svg viewBox="0 0 192 119.88661417322835" height="119.88661417322835" width="192"><g><svg viewBox="0 0 192 119.88661417322835" height="119.88661417322835" width="192"><g transform="matrix(1,0,0,1,0,0)"><svg width="192" viewBox="0 -37.55 62.01 38.72" height="119.88661417322835" data-palette-color="#ff0033"><path d="M19.92-37.55L19.92-37.55Q20.31-37.55 20.48-37.38 20.65-37.21 20.75-36.96L20.75-36.96Q21.24-37.01 21.75-36.79 22.27-36.57 22.36-36.38L22.36-36.38Q22.75-36.33 22.85-36.18 22.95-36.04 23.14-35.99L23.14-35.99 23.68-36.04Q23.88-35.84 24.44-35.64 25-35.45 25.1-35.21L25.1-35.21Q25-34.96 25.02-34.69 25.05-34.42 25.05-34.08L25.05-34.08Q24.9-33.35 24.58-32.76 24.27-32.18 24.02-31.64L24.02-31.64Q23.88-31.4 23.8-31.1 23.73-30.81 23.63-30.57L23.63-30.57Q23.54-30.37 23.46-30.2 23.39-30.03 23.29-29.83L23.29-29.83Q23.29-29.59 23.19-29.32 23.1-29.05 23-28.81L23-28.81Q23-28.52 22.95-28.39 22.9-28.27 22.9-28.17L22.9-28.17Q21.97-25.93 21.44-23.97 20.9-22.02 20.36-20.07L20.36-20.07Q20.12-19.48 19.87-18.6 19.63-17.72 19.26-16.53 18.9-15.33 18.48-13.99 18.07-12.65 17.7-11.5 17.33-10.35 17.07-9.55 16.8-8.74 16.75-8.64L16.75-8.64Q16.6-7.81 16.31-6.96 16.02-6.1 15.82-5.18L15.82-5.18Q15.58-4.88 15.53-4.52 15.48-4.15 15.28-3.81L15.28-3.81Q14.89-3.86 14.65-3.61L14.65-3.61Q14.6-3.22 14.72-2.88 14.84-2.54 14.84-2.15L14.84-2.15Q14.65-1.61 14.36-1.46 14.06-1.32 13.96-0.98L13.96-0.98Q13.62-1.07 13.45-0.88 13.28-0.68 13.09-0.68L13.09-0.68Q12.5-0.83 12.4-0.49L12.4-0.49Q12.11-0.59 12.01-0.42 11.91-0.24 11.82-0.2L11.82-0.2Q11.43-0.2 11.21-0.02 10.99 0.15 10.69 0.2L10.69 0.2Q10.5 0.1 10.3-0.02 10.11-0.15 9.96-0.29L9.96-0.29Q9.67-1.12 9.42-1.93 9.18-2.73 8.94-3.56L8.94-3.56Q8.84-3.96 8.69-4.3 8.54-4.64 8.45-5.03L8.45-5.03Q8.4-5.27 8.4-5.44 8.4-5.62 8.35-5.81L8.35-5.81Q8.25-6.05 8.15-6.3 8.06-6.54 7.96-6.79L7.96-6.79Q7.57-7.86 7.37-8.98L7.37-8.98Q7.13-9.81 6.91-10.62 6.69-11.43 6.49-12.26L6.49-12.26Q6.35-12.94 6.15-13.7 5.96-14.45 5.66-15.04L5.66-15.04Q5.57-15.82 5.25-16.53 4.93-17.24 4.93-17.97L4.93-17.97Q4.69-18.75 4.52-19.53 4.35-20.31 4.1-21.09L4.1-21.09Q4-21.48 3.86-21.83 3.71-22.17 3.61-22.51L3.61-22.51Q3.47-22.95 3.37-23.44 3.27-23.93 3.17-24.41L3.17-24.41Q3.03-24.85 2.88-25.27 2.73-25.68 2.59-26.12L2.59-26.12Q2.34-26.95 2.12-27.76 1.9-28.56 1.66-29.39L1.66-29.39Q1.42-30.32 1.2-31.23 0.98-32.13 0.44-32.96L0.44-32.96Q0.29-33.2 0.22-33.52 0.15-33.84 0-34.13L0-34.13Q0.1-34.52 0.05-35.03 0-35.55 0.2-35.84L0.2-35.84Q0.68-35.84 1.37-35.86 2.05-35.89 2.39-35.79L2.39-35.79Q2.59-35.84 2.71-35.94 2.83-36.04 3.03-36.08L3.03-36.08Q3.32-35.94 3.61-35.94L3.61-35.94Q4.05-35.94 4.3-36.13L4.3-36.13Q4.83-35.89 4.88-36.04 4.93-36.18 5.13-36.18L5.13-36.18Q5.42-36.08 5.57-35.77 5.71-35.45 5.86-35.21L5.86-35.21Q6.4-34.23 6.67-33.28 6.93-32.32 7.23-31.25L7.23-31.25Q7.57-30.27 7.86-29.32 8.15-28.37 8.4-27.39L8.4-27.39Q8.54-26.9 8.64-26.42 8.74-25.93 8.84-25.44L8.84-25.44Q8.98-24.9 9.18-24.44 9.38-23.97 9.57-23.44L9.57-23.44Q9.67-22.9 9.77-22.39 9.86-21.88 10.01-21.34L10.01-21.34Q10.11-20.95 10.25-20.61 10.4-20.26 10.5-19.87L10.5-19.87Q10.6-19.48 10.69-19.07 10.79-18.65 10.89-18.26L10.89-18.26Q11.13-17.29 11.43-16.33 11.72-15.38 11.96-14.4L11.96-14.4Q12.21-14.55 12.26-14.94 12.3-15.33 12.45-15.58L12.45-15.58Q12.55-16.16 12.77-16.85 12.99-17.53 13.18-18.12L13.18-18.12Q13.23-18.36 13.31-18.55 13.38-18.75 13.48-18.99L13.48-18.99Q13.62-19.29 13.67-19.6 13.72-19.92 13.82-20.26L13.82-20.26Q14.01-20.95 14.23-21.63 14.45-22.31 14.65-23L14.65-23Q14.84-23.63 14.99-24.32 15.14-25 15.38-25.59L15.38-25.59Q15.63-26.12 15.8-26.61 15.97-27.1 16.11-27.64L16.11-27.64Q16.26-28.17 16.36-28.71 16.46-29.25 16.7-29.69L16.7-29.69Q16.8-29.93 16.92-30.25 17.04-30.57 17.14-30.86L17.14-30.86Q17.38-31.64 17.58-32.42 17.77-33.2 18.12-33.98L18.12-33.98Q18.36-34.67 18.7-35.3 19.04-35.94 19.29-36.62L19.29-36.62Q19.48-37.11 19.63-37.26 19.78-37.4 19.92-37.55ZM62.01-0.15L62.01-0.15Q61.77 0.1 61.47 0.15 61.18 0.2 60.89 0.2L60.89 0.2Q60.15 0.54 59.32 0.54L59.32 0.54Q58.79 0.24 58.74 0.34 58.69 0.44 58.54 0.54L58.54 0.54Q57.81 0.88 57.22 0.9 56.64 0.93 56.25 1.17L56.25 1.17Q55.86 0.88 55.83 0.32 55.81-0.24 55.71-0.63L55.71-0.63Q55.47-0.98 55.37-1.49 55.27-2 55.22-2.54 55.17-3.08 55.1-3.59 55.03-4.1 54.83-4.49L54.83-4.49Q54.78-4.74 54.81-4.93 54.83-5.13 54.73-5.37L54.73-5.37Q54.78-6.2 54.69-6.69 54.59-7.18 54.49-7.71L54.49-7.71Q54.44-8.01 54.44-8.37 54.44-8.74 54.15-8.94L54.15-8.94Q54.29-9.62 54.2-9.96 54.1-10.3 54.05-10.6L54.05-10.6Q54-10.99 54-11.45 54-11.91 53.9-12.3L53.9-12.3Q53.61-14.65 53.27-16.99 52.93-19.34 52.63-21.68L52.63-21.68Q52.34-21.44 52.22-20.95 52.1-20.46 52-20.07L52-20.07Q51.71-19.19 51.46-18.26 51.22-17.33 50.97-16.46L50.97-16.46Q50.88-16.06 50.8-15.55 50.73-15.04 50.58-14.65L50.58-14.65Q50.1-13.23 49.73-12.21 49.36-11.18 49.02-10.11L49.02-10.11Q48.92-9.52 48.83-8.98 48.73-8.45 48.63-7.91L48.63-7.91Q48.58-7.62 48.48-7.08 48.39-6.54 48.29-6.3L48.29-6.3Q48.19-6.05 48.12-5.96 48.04-5.86 48.09-5.62L48.09-5.62Q47.6-4.88 47.43-4 47.26-3.13 46.82-2.29L46.82-2.29Q46.82-1.71 46.38-1.27L46.38-1.27Q46.14-1.22 45.92-1.17 45.7-1.12 45.46-0.98L45.46-0.98Q45.21-1.07 44.89-1.1 44.58-1.12 44.28-1.12L44.28-1.12Q44.04-1.17 43.85-1.29 43.65-1.42 43.41-1.46L43.41-1.46Q43.16-1.76 42.87-1.98 42.58-2.2 42.28-2.44L42.28-2.44Q41.99-3.17 41.75-3.42L41.75-3.42Q41.6-3.96 41.35-4.42 41.11-4.88 41.01-5.47L41.01-5.47Q40.87-6.01 40.65-6.47 40.43-6.93 40.18-7.47L40.18-7.47Q40.09-7.81 39.96-8.13 39.84-8.45 39.69-8.79L39.69-8.79Q39.65-9.18 39.43-9.77 39.21-10.35 39.11-10.79L39.11-10.79Q39.11-10.84 38.94-11.3 38.77-11.77 38.6-12.3 38.43-12.84 38.25-13.28 38.08-13.72 38.03-13.77L38.03-13.77Q37.94-14.01 37.86-14.23 37.79-14.45 37.69-14.75L37.69-14.75Q37.5-15.38 37.2-16.04 36.91-16.7 36.62-17.29L36.62-17.29Q36.37-17.77 36.28-18.24 36.18-18.7 36.03-19.14L36.03-19.14Q35.94-19.38 35.86-19.58 35.79-19.78 35.69-20.02L35.69-20.02Q35.59-20.31 35.5-20.63 35.4-20.95 35.3-21.29L35.3-21.29Q35.06-21.19 35.08-20.87 35.1-20.56 35.06-20.31L35.06-20.31Q34.96-19.78 34.96-19.26 34.96-18.75 34.91-18.21L34.91-18.21Q34.81-17.63 34.71-17.09 34.62-16.55 34.57-16.02L34.57-16.02Q34.57-14.7 34.42-13.38L34.42-13.38Q34.32-12.21 34.18-11.01 34.03-9.81 33.98-8.54L33.98-8.54Q33.98-7.62 33.79-6.71 33.59-5.81 33.69-4.83L33.69-4.83Q33.59-4.64 33.59-4.54 33.59-4.44 33.59-4.25L33.59-4.25Q33.59-4 33.57-3.71 33.54-3.42 33.54-3.17L33.54-3.17Q33.54-2.73 33.64-2.59L33.64-2.59Q33.49-2.15 33.49-1.64 33.49-1.12 33.49-0.63L33.49-0.63Q33.4-0.44 33.37-0.24 33.35-0.05 33.2 0.15L33.2 0.15Q33.25 0.98 32.71 0.98L32.71 0.98Q32.57 0.98 32.39 0.9 32.22 0.83 32.13 0.68L32.13 0.68Q31.59 0.73 31.52 0.44 31.44 0.15 31.2 0.2L31.2 0.2Q30.61 0.44 30.54 0.34 30.47 0.24 30.22 0.29L30.22 0.29Q29.83-0.1 29.71-0.05 29.59 0 29.49 0L29.49 0Q29.05-0.15 29-0.07 28.95 0 28.81 0L28.81 0Q28.56-0.24 28.15-0.24 27.73-0.24 27.44-0.29L27.44-0.29Q27.39-0.49 27.37-0.66 27.34-0.83 27.34-1.07L27.34-1.07Q27.34-1.37 27.37-1.64 27.39-1.9 27.39-2.2L27.39-2.2Q27.39-2.44 27.37-2.71 27.34-2.98 27.34-3.32L27.34-3.32Q27.34-3.66 27.39-3.98 27.44-4.3 27.44-4.69L27.44-4.69Q27.44-4.83 27.39-4.96 27.34-5.08 27.34-5.27L27.34-5.27Q27.63-5.91 27.61-6.27 27.59-6.64 27.63-6.98L27.63-6.98Q27.73-7.81 27.81-8.62 27.88-9.42 27.98-10.25L27.98-10.25Q27.98-11.62 28.05-12.52 28.12-13.43 28.27-14.36L28.27-14.36Q28.37-14.79 28.44-15.19 28.51-15.58 28.61-16.02L28.61-16.02Q28.71-16.75 28.73-17.55 28.76-18.36 28.85-19.14L28.85-19.14Q28.95-20.36 29.1-21.56 29.25-22.75 29.34-23.93L29.34-23.93Q29.44-24.85 29.56-25.76 29.68-26.66 29.68-27.49L29.68-27.49Q29.68-27.93 29.81-28.61 29.93-29.3 29.98-29.79L29.98-29.79Q30.08-30.96 30.15-32.08 30.22-33.2 30.22-34.33L30.22-34.33 30.22-34.86Q30.22-34.96 30.32-35.06 30.42-35.16 30.42-35.4L30.42-35.4Q30.42-35.84 30.64-36.01 30.86-36.18 31-36.57L31-36.57Q31.25-36.57 31.56-36.52 31.88-36.47 32.03-36.23L32.03-36.23Q32.37-36.33 32.71-36.33 33.05-36.33 33.3-36.57L33.3-36.57Q33.59-36.57 33.74-36.43 33.88-36.28 34.13-36.18L34.13-36.18Q34.32-36.28 34.52-36.35 34.71-36.43 34.91-36.52L34.91-36.52Q35.06-36.43 35.13-36.3 35.2-36.18 35.35-36.13L35.35-36.13Q36.08-36.33 36.33-36.18L36.33-36.18Q36.42-35.99 36.45-35.79 36.47-35.6 36.52-35.4L36.52-35.4Q37.01-34.91 37.16-34.3 37.3-33.69 37.69-33.2L37.69-33.2Q37.79-32.91 37.91-32.62 38.03-32.32 38.13-31.93L38.13-31.93 38.28-31.35Q38.47-30.86 38.77-30.18L38.77-30.18Q39.01-29.25 39.21-28.27 39.4-27.29 39.84-26.46L39.84-26.46Q39.89-26.17 40.01-25.76 40.13-25.34 40.23-25.05L40.23-25.05Q40.57-24.22 40.94-23.41 41.31-22.61 41.6-21.68L41.6-21.68Q41.89-20.75 42.11-19.78 42.33-18.8 42.67-17.87L42.67-17.87Q42.97-16.99 43.11-16.6 43.26-16.21 43.5-15.82L43.5-15.82Q43.5-15.67 43.58-15.33 43.65-14.99 43.8-14.62 43.94-14.26 44.09-13.94 44.24-13.62 44.38-13.57L44.38-13.57Q44.53-13.67 44.55-13.87 44.58-14.06 44.72-14.21L44.72-14.21Q44.77-14.75 44.89-15.53 45.02-16.31 45.26-16.8L45.26-16.8Q45.26-17.04 45.38-17.7 45.51-18.36 45.7-19.12 45.9-19.87 46.07-20.51 46.24-21.14 46.38-21.29L46.38-21.29Q46.48-21.92 46.56-22.07 46.63-22.22 46.73-22.31L46.73-22.31Q46.77-22.71 46.92-23.05 47.07-23.39 47.12-23.78L47.12-23.78Q47.21-24.61 47.36-25.15 47.51-25.68 47.75-26.46L47.75-26.46Q47.95-27.15 48.12-27.86 48.29-28.56 48.53-29.25L48.53-29.25Q49.12-31.1 49.58-32.54 50.05-33.98 50.73-35.35L50.73-35.35Q50.88-35.79 50.97-35.89 51.07-35.99 51.17-36.08L51.17-36.08Q51.56-36.23 51.98-36.23 52.39-36.23 52.83-36.18L52.83-36.18Q53.32-36.38 53.56-36.62L53.56-36.62Q53.76-36.38 54.15-36.38L54.15-36.38Q54.64-36.38 54.83-36.67L54.83-36.67Q55.03-36.57 55.15-36.62 55.27-36.67 55.52-36.57L55.52-36.57Q55.61-36.67 55.76-36.79 55.91-36.91 56.05-36.91L56.05-36.91Q56.44-36.43 56.66-36.16 56.88-35.89 56.98-35.55L56.98-35.55Q57.13-35.11 57.15-34.59 57.18-34.08 57.42-33.64L57.42-33.64Q57.37-33.01 57.49-31.71 57.61-30.42 57.79-28.98 57.96-27.54 58.15-26.32 58.35-25.1 58.49-24.8L58.49-24.8Q58.44-24.17 58.54-23.73 58.64-23.29 58.64-22.85L58.64-22.85Q58.64-22.71 58.69-22.24 58.74-21.78 58.79-21.26 58.84-20.75 58.91-20.29 58.98-19.82 59.03-19.63L59.03-19.63Q59.03-18.75 59.32-18.26L59.32-18.26Q59.57-17.04 59.74-15.82 59.91-14.6 60.06-13.33L60.06-13.33Q60.15-12.7 60.18-12.11 60.2-11.52 60.3-10.89L60.3-10.89Q60.35-10.64 60.42-10.4 60.5-10.16 60.54-9.91L60.54-9.91Q60.64-9.42 60.69-8.98 60.74-8.54 60.84-8.11L60.84-8.11Q60.89-7.86 60.98-7.59 61.08-7.32 60.98-7.03L60.98-7.03Q61.08-6.69 61.06-6.3 61.03-5.91 61.23-5.62L61.23-5.62Q61.23-4.59 61.37-3.81L61.37-3.81Q61.42-3.22 61.67-2.64L61.67-2.64Q61.77-2.05 61.84-1.42 61.91-0.78 62.01-0.15Z" opacity="1" transform="matrix(1,0,0,1,0,0)" fill="#ffffff" class="undefined-text-0" data-fill-palette-color="primary" id="text-0"></path></svg></g></svg></g></svg></g></svg></g><g></g></svg></g></svg></g></svg></g></svg></g><defs></defs></svg><rect width="320" height="360" fill="none" stroke="none" visibility="hidden"></rect></g></svg></g></svg>